<svg width="24" height="24" viewBox="0 0 24 24" fill="none" xmlns="http://www.w3.org/2000/svg">
<path d="M16.0422 12.7361L11.6253 17.153C11.4301 17.3483 11.1653 17.4579 10.8892 17.4579C10.6131 17.4579 10.3483 17.3483 10.153 17.153C9.95778 16.9578 9.84809 16.693 9.84809 16.4169C9.84809 16.1408 9.95778 15.876 10.153 15.6807L13.8337 12L10.153 8.31927C9.95778 8.12404 9.84809 7.85924 9.84809 7.58313C9.84809 7.30702 9.95778 7.04222 10.153 6.84698C10.3483 6.65175 10.6131 6.54206 10.8892 6.54206C11.1653 6.54206 11.4301 6.65175 11.6253 6.84698L16.0422 11.2639C16.2374 11.4591 16.3471 11.7239 16.3471 12C16.3471 12.2761 16.2374 12.5409 16.0422 12.7361Z" fill="#001F40"/>
</svg>
