<svg width="24" height="24" viewBox="0 0 24 24" fill="none" xmlns="http://www.w3.org/2000/svg">
<path d="M10.806 16.5841L4.97242 10.7504C4.71456 10.4926 4.56969 10.1428 4.56969 9.77817C4.56969 9.4135 4.71456 9.06377 4.97242 8.8059C5.23028 8.54804 5.58002 8.40317 5.94469 8.40317C6.30936 8.40317 6.6591 8.54804 6.91696 8.8059L11.7783 13.6673L16.6397 8.8059C16.8975 8.54804 17.2473 8.40317 17.612 8.40317C17.9766 8.40317 18.3264 8.54804 18.5842 8.8059C18.8421 9.06377 18.987 9.4135 18.987 9.77817C18.987 10.1428 18.8421 10.4926 18.5842 10.7504L12.7506 16.5841C12.4927 16.8419 12.143 16.9868 11.7783 16.9868C11.4136 16.9868 11.0639 16.8419 10.806 16.5841Z" fill="#001F40"/>
</svg>
