<svg width="24" height="24" viewBox="0 0 24 24" fill="none" xmlns="http://www.w3.org/2000/svg">
<path d="M20.3337 5.5499H16.1657V4.69961C16.1652 4.249 15.9894 3.817 15.6771 3.49837C15.3647 3.17975 14.9412 3.00052 14.4994 3H9.49964C9.05787 3.00052 8.63435 3.17975 8.32197 3.49837C8.00959 3.817 7.83388 4.249 7.83337 4.69961V5.5499H3.66627C3.2245 5.55042 2.80097 5.72965 2.4886 6.04828C2.17622 6.3669 2.00051 6.7989 2 7.24951V9.79941C2.00051 10.25 2.17622 10.682 2.4886 11.0007C2.80097 11.3193 3.2245 11.4985 3.66627 11.499H10.3323V11.0744C10.3323 10.9617 10.3762 10.8537 10.4542 10.7741C10.5323 10.6944 10.6382 10.6497 10.7486 10.6497H13.2485C13.3589 10.6497 13.4648 10.6944 13.5429 10.7741C13.621 10.8537 13.6648 10.9617 13.6648 11.0744V11.499H20.3337C20.7755 11.4985 21.199 11.3193 21.5114 11.0007C21.8238 10.682 21.9995 10.25 22 9.79941V7.24951C21.9995 6.7989 21.8238 6.3669 21.5114 6.04828C21.199 5.72965 20.7755 5.55042 20.3337 5.5499ZM14.5013 5.5499H9.49964V4.69961H14.4994L14.5013 5.5499Z" fill="#001F40"/>
<path d="M21.7661 11.9587C21.6965 11.9236 21.6188 11.9088 21.5415 11.9162C21.4643 11.9236 21.3906 11.9529 21.3287 12.0006C21.0425 12.226 20.6915 12.3488 20.3299 12.3503H13.6658V13.6252C13.6658 13.7379 13.6219 13.8459 13.5439 13.9255C13.4658 14.0052 13.3599 14.0499 13.2495 14.0499H10.7496C10.6392 14.0499 10.5333 14.0052 10.4552 13.9255C10.3771 13.8459 10.3333 13.7379 10.3333 13.6252V12.3503H3.66627C3.30504 12.3486 2.95438 12.2257 2.66842 12.0006C2.60663 11.9527 2.53292 11.9233 2.45562 11.9158C2.37833 11.9083 2.30052 11.9231 2.23099 11.9583C2.16147 11.9936 2.10299 12.048 2.06217 12.1153C2.02136 12.1827 1.99982 12.2604 2 12.3396V18.3004C2.00051 18.751 2.17622 19.183 2.4886 19.5016C2.80097 19.8202 3.2245 19.9995 3.66627 20H20.3337C20.7755 19.9995 21.199 19.8202 21.5114 19.5016C21.8238 19.183 21.9995 18.751 22 18.3004V12.3396C21.9998 12.2601 21.9778 12.1823 21.9365 12.115C21.8951 12.0477 21.8361 11.9935 21.7661 11.9587Z" fill="#001F40"/>
</svg>
