<svg width="32" height="32" viewBox="0 0 32 32" fill="none" xmlns="http://www.w3.org/2000/svg">
<path d="M26 9.14988H20.9983V8.09952C20.9977 7.54289 20.7868 7.00924 20.412 6.61564C20.0371 6.22204 19.5289 6.00064 18.9988 6H12.9991C12.469 6.00064 11.9607 6.22204 11.5859 6.61564C11.211 7.00924 11.0002 7.54289 10.9996 8.09952V9.14988H5.99903C5.46891 9.15052 4.96068 9.37192 4.58583 9.76552C4.21098 10.1591 4.00012 10.6928 3.99951 11.2494V14.3993C4.00012 14.9559 4.21098 15.4896 4.58583 15.8832C4.96068 16.2768 5.46891 16.4982 5.99903 16.4988H13.9983V15.9742C13.9983 15.8351 14.0509 15.7017 14.1446 15.6033C14.2383 15.5049 14.3654 15.4496 14.4979 15.4496H17.4977C17.6302 15.4496 17.7573 15.5049 17.851 15.6033C17.9447 15.7017 17.9973 15.8351 17.9973 15.9742V16.4988H26C26.5301 16.4982 27.0383 16.2768 27.4132 15.8832C27.788 15.4896 27.9989 14.9559 27.9995 14.3993V11.2494C27.9989 10.6928 27.788 10.1591 27.4132 9.76552C27.0383 9.37192 26.5301 9.15052 26 9.14988ZM19.0011 9.14988H12.9991V8.09952H18.9988L19.0011 9.14988Z" fill="#001F40"/>
<path d="M27.7188 17.0667C27.6354 17.0232 27.5421 17.005 27.4494 17.0142C27.3567 17.0233 27.2682 17.0594 27.194 17.1184C26.8505 17.3968 26.4293 17.5486 25.9954 17.5504H17.9985V19.1253C17.9985 19.2644 17.9458 19.3979 17.8521 19.4962C17.7584 19.5946 17.6314 19.6499 17.4989 19.6499H14.499C14.3665 19.6499 14.2394 19.5946 14.1457 19.4962C14.0521 19.3979 13.9994 19.2644 13.9994 19.1253V17.5504H5.99904C5.56556 17.5483 5.14477 17.3965 4.80161 17.1184C4.72746 17.0592 4.63901 17.0229 4.54626 17.0137C4.4535 17.0044 4.36013 17.0226 4.2767 17.0662C4.19327 17.1097 4.1231 17.1769 4.07412 17.2601C4.02514 17.3433 3.9993 17.4393 3.99951 17.5371V24.9005C4.00012 25.4571 4.21098 25.9908 4.58583 26.3844C4.96068 26.778 5.46892 26.9994 5.99904 27H26C26.5301 26.9994 27.0383 26.778 27.4132 26.3844C27.788 25.9908 27.9989 25.4571 27.9995 24.9005V17.5371C27.9993 17.439 27.9729 17.3429 27.9233 17.2597C27.8736 17.1765 27.8028 17.1097 27.7188 17.0667Z" fill="#001F40"/>
</svg>
