<svg width="24" height="24" viewBox="0 0 24 24" fill="none" xmlns="http://www.w3.org/2000/svg">
<path d="M5.26892 9.74896C5.26768 8.85947 5.4425 7.97853 5.78331 7.15692C6.12412 6.33531 6.62417 5.58927 7.25465 4.96182C7.88513 4.33437 8.63356 3.83791 9.4568 3.50106C10.28 3.16421 11.1618 2.99363 12.0513 2.99915C15.7628 3.02675 18.7316 6.11178 18.7316 9.8337V10.499C18.7316 13.8567 19.4341 15.8051 20.0528 16.87C20.1195 16.9838 20.1549 17.1132 20.1556 17.2451C20.1563 17.3769 20.1223 17.5066 20.0568 17.6211C19.9914 17.7356 19.8969 17.8309 19.783 17.8972C19.669 17.9635 19.5395 17.9986 19.4077 17.999H4.5921C4.46021 17.9986 4.33075 17.9635 4.21677 17.8972C4.10278 17.8308 4.00831 17.7356 3.94289 17.6211C3.87747 17.5065 3.8434 17.3768 3.84413 17.2449C3.84486 17.113 3.88035 16.9837 3.94704 16.8699C4.5661 15.8049 5.26891 13.8565 5.26891 10.499L5.26892 9.74896Z" fill="#8D3900"/>
<path d="M8.99994 17.9995V18.7495C8.99994 19.5452 9.31601 20.3082 9.87862 20.8708C10.4412 21.4334 11.2043 21.7495 11.9999 21.7495C12.7956 21.7495 13.5586 21.4334 14.1213 20.8708C14.6839 20.3082 14.9999 19.5452 14.9999 18.7495V17.9995" stroke="#8D3900" stroke-width="1.5" stroke-linecap="round" stroke-linejoin="round"/>
</svg>
