<svg width="24" height="24" viewBox="0 0 24 24" fill="none" xmlns="http://www.w3.org/2000/svg">
<g opacity="0.2">
<path d="M16.1809 13.1809L10.3473 19.0145C10.0894 19.2724 9.73967 19.4173 9.375 19.4173C9.01033 19.4173 8.66059 19.2724 8.40273 19.0145C8.14487 18.7567 8 18.4069 8 18.0423C8 17.6776 8.14487 17.3279 8.40273 17.07L13.2641 12.2086L8.40273 7.34727C8.14487 7.08941 8 6.73967 8 6.375C8 6.01033 8.14487 5.66059 8.40273 5.40273C8.66059 5.14487 9.01033 5 9.375 5C9.73967 5 10.0894 5.14487 10.3473 5.40273L16.1809 11.2364C16.4388 11.4942 16.5836 11.844 16.5836 12.2086C16.5836 12.5733 16.4388 12.923 16.1809 13.1809Z" fill="#001F40"/>
</g>
</svg>
