<svg width="24" height="24" viewBox="0 0 24 24" fill="none" xmlns="http://www.w3.org/2000/svg">
<path d="M6.17773 16.0003L6.17773 14.0002L1.17767 14.0002L1.17767 16.0003L6.17773 16.0003Z" fill="#001F40"/>
<path d="M16.7742 16.0381L16.7742 14.038L11.7741 14.038L11.7741 16.0381L16.7742 16.0381Z" fill="#001F40"/>
<path d="M8.00022 12.2455L10.0002 12.2455L10.0002 7.24542L8.00022 7.24542L8.00022 12.2455Z" fill="#001F40"/>
<path d="M8.00022 22.8419L10.0002 22.8419L10.0002 17.8418L8.00022 17.8418L8.00022 22.8419Z" fill="#001F40"/>
<path d="M17.0263 11.5215L18.5264 11.5215L18.5264 8.42278L17.0263 8.42278L17.0263 11.5215Z" fill="#001F40"/>
<path d="M17.0263 5.09125L18.5264 5.09125L18.5264 1.99249L17.0263 1.99249L17.0263 5.09125Z" fill="#001F40"/>
<path d="M13.0417 5.97746L13.0417 7.47748L16.1405 7.47748L16.1405 5.97746L13.0417 5.97746Z" fill="#001F40"/>
<path d="M19.3816 5.97746L19.3816 7.47748L22.4804 7.47748L22.4804 5.97746L19.3816 5.97746Z" fill="#001F40"/>
</svg>
