<svg width="24" height="24" viewBox="0 0 24 24" fill="none" xmlns="http://www.w3.org/2000/svg">
<path d="M0.199997 12.1036L4.23299 16.0797C4.3583 16.203 4.52754 16.2716 4.70345 16.2702C4.87935 16.2689 5.04753 16.1979 5.17099 16.0727C5.29445 15.9475 5.36307 15.7784 5.36176 15.6027C5.36044 15.427 5.2893 15.2589 5.16399 15.1356L2.282 12.2945L23.337 12.2945C23.513 12.2945 23.6817 12.2246 23.8062 12.1003C23.9306 11.976 24.0005 11.8074 24.0005 11.6316C24.0005 11.4558 23.9306 11.2872 23.8062 11.1629C23.6817 11.0386 23.513 10.9688 23.337 10.9688L2.27998 10.9688L5.16199 8.12762C5.22404 8.06655 5.27344 7.99387 5.30737 7.91373C5.34131 7.83359 5.35911 7.74756 5.35976 7.66054C5.36041 7.57353 5.34389 7.48723 5.31116 7.40659C5.27843 7.32595 5.23012 7.25255 5.16899 7.19056C5.10786 7.12857 5.0351 7.07922 4.95488 7.04532C4.87466 7.01142 4.78855 6.99364 4.70145 6.99299C4.61435 6.99234 4.52797 7.00883 4.44725 7.04153C4.36653 7.07423 4.29304 7.1225 4.23099 7.18357L0.197998 11.1596C0.135321 11.2212 0.085537 11.2947 0.0515594 11.3757C0.0175819 11.4568 9.15527e-05 11.5438 9.15527e-05 11.6316C9.15527e-05 11.7195 0.0175819 11.8065 0.0515594 11.8875C0.085537 11.9685 0.135321 12.042 0.197998 12.1036H0.199997Z" fill="#001F40"/>
</svg>
