<svg width="24" height="24" viewBox="0 0 24 24" fill="none" xmlns="http://www.w3.org/2000/svg">
<path d="M21 8V18.2857C21 19.2321 20.2441 20 19.3125 20H4.6875C3.75586 20 3 19.2321 3 18.2857V8C3 7.05357 3.75586 6.28571 4.6875 6.28571H7.78125L8.21367 5.11071C8.45977 4.44286 9.08906 4 9.79219 4H14.2043C14.9074 4 15.5367 4.44286 15.7828 5.11071L16.2188 6.28571H19.3125C20.2441 6.28571 21 7.05357 21 8ZM16.2188 13.1429C16.2188 10.7786 14.3273 8.85714 12 8.85714C9.67266 8.85714 7.78125 10.7786 7.78125 13.1429C7.78125 15.5071 9.67266 17.4286 12 17.4286C14.3273 17.4286 16.2188 15.5071 16.2188 13.1429ZM15.0938 13.1429C15.0938 14.875 13.7051 16.2857 12 16.2857C10.2949 16.2857 8.90625 14.875 8.90625 13.1429C8.90625 11.4107 10.2949 10 12 10C13.7051 10 15.0938 11.4107 15.0938 13.1429Z" fill="#001F40"/>
</svg>
