<svg width="24" height="24" viewBox="0 0 24 24" fill="none" xmlns="http://www.w3.org/2000/svg">
<path d="M6.92857 19.4062C6.92857 19.8289 7.07532 20.2343 7.33653 20.5332C7.59774 20.8321 7.95202 21 8.32143 21H16.6786C17.048 21 17.4023 20.8321 17.6635 20.5332C17.9247 20.2343 18.0714 19.8289 18.0714 19.4062V8.25H6.92857V19.4062ZM18.5357 5.06251H15.0536L14.7808 4.44161C14.723 4.30887 14.634 4.19721 14.5238 4.11919C14.4136 4.04118 14.2865 3.9999 14.1569 4.00001H10.8402C10.7109 3.99944 10.584 4.04056 10.4742 4.11866C10.3644 4.19676 10.276 4.30869 10.2192 4.44161L9.94643 5.06251H6.46429C6.34115 5.06251 6.22306 5.11848 6.13599 5.2181C6.04892 5.31773 6 5.45286 6 5.59376V6.65625C6 6.79715 6.04892 6.93228 6.13599 7.0319C6.22306 7.13153 6.34115 7.1875 6.46429 7.1875H18.5357C18.6589 7.1875 18.7769 7.13153 18.864 7.0319C18.9511 6.93228 19 6.79715 19 6.65625V5.59376C19 5.45286 18.9511 5.31773 18.864 5.2181C18.7769 5.11848 18.6589 5.06251 18.5357 5.06251Z" fill="#001F40"/>
</svg>
