<svg width="24" height="24" viewBox="0 0 24 24" fill="none" xmlns="http://www.w3.org/2000/svg">
<path fill-rule="evenodd" clip-rule="evenodd" d="M6.27734 6.02344C5.95374 6.02344 5.69141 6.28577 5.69141 6.60938V13.875C5.69141 14.1986 5.95374 14.4609 6.27734 14.4609H7.46875V15.9844C7.46875 16.308 7.73108 16.5703 8.05469 16.5703H9.44141V17.332C9.44141 17.6556 9.70374 17.918 10.0273 17.918H14.207C14.5306 17.918 14.793 17.6556 14.793 17.332V16.5703H16.1602C16.4838 16.5703 16.7461 16.308 16.7461 15.9844V14.4609H17.8594C18.183 14.4609 18.4453 14.1986 18.4453 13.875V6.60938C18.4453 6.28577 18.183 6.02344 17.8594 6.02344H6.27734ZM6.86328 13.2891V7.19531H8.67969V9.38281C8.67969 9.70642 8.94202 9.96875 9.26562 9.96875C9.58923 9.96875 9.85156 9.70642 9.85156 9.38281V7.19531H11.4336V9.38281C11.4336 9.70642 11.6959 9.96875 12.0195 9.96875C12.3431 9.96875 12.6055 9.70642 12.6055 9.38281V7.19531H14.1484V9.38281C14.1484 9.70642 14.4108 9.96875 14.7344 9.96875C15.058 9.96875 15.3203 9.70642 15.3203 9.38281V7.19531H17.2734V13.2891H16.1602C15.8366 13.2891 15.5742 13.5514 15.5742 13.875V15.3984H14.207C13.8834 15.3984 13.6211 15.6608 13.6211 15.9844V16.7461H10.6133V15.9844C10.6133 15.6608 10.3509 15.3984 10.0273 15.3984H8.64062V13.875C8.64062 13.5514 8.37829 13.2891 8.05469 13.2891H6.86328Z" fill="#001F40"/>
<path fill-rule="evenodd" clip-rule="evenodd" d="M2 5.39844C2 3.52153 3.52153 2 5.39844 2H18.6016C20.4785 2 22 3.52153 22 5.39844V18.6016C22 20.4785 20.4785 22 18.6016 22H5.39844C3.52153 22 2 20.4785 2 18.6016V5.39844ZM5.39844 3.17188H18.6016C19.8313 3.17188 20.8281 4.16874 20.8281 5.39844V18.6016C20.8281 19.8313 19.8313 20.8281 18.6016 20.8281H5.39844C4.16874 20.8281 3.17188 19.8313 3.17188 18.6016V5.39844C3.17188 4.16874 4.16874 3.17188 5.39844 3.17188Z" fill="#001F40"/>
</svg>