<svg width="24" height="19" viewBox="0 0 24 19" fill="none" xmlns="http://www.w3.org/2000/svg">
<path fill-rule="evenodd" clip-rule="evenodd" d="M9.82642 16.0552C9.41233 17.2197 8.3032 18.0531 6.99998 18.0531C5.69676 18.0531 4.58763 17.2197 4.17354 16.0552H1.00498C0.449945 16.0552 0 15.604 0 15.0473C0 14.4906 0.449946 14.0393 1.00498 14.0393H4.17139C4.58377 12.8717 5.6945 12.0354 6.99998 12.0354C8.30547 12.0354 9.41619 12.8717 9.82858 14.0393H22.9949C23.55 14.0393 23.9999 14.4906 23.9999 15.0473C23.9999 15.604 23.55 16.0552 22.9949 16.0552H9.82642ZM8.49998 15.0442C8.49998 15.8751 7.82841 16.5487 6.99998 16.5487C6.17156 16.5487 5.49999 15.8751 5.49999 15.0442C5.49999 14.2134 6.17156 13.5398 6.99998 13.5398C7.82841 13.5398 8.49998 14.2134 8.49998 15.0442Z" fill="#001F40"/>
<path fill-rule="evenodd" clip-rule="evenodd" d="M6.99998 6.0177C8.31226 6.0177 9.42774 5.17264 9.83496 3.99551C9.8855 4.00346 9.9373 4.00759 9.99007 4.00759H23.007C23.5554 4.00759 24 3.56169 24 3.01164C24 2.4616 23.5554 2.01569 23.007 2.01569H9.99007C9.93794 2.01569 9.88675 2.01973 9.83679 2.02749C9.43109 0.847597 8.31423 0 6.99998 0C5.69012 0 4.57633 0.841951 4.16726 2.01569H0.993018C0.44459 2.01569 0 2.4616 0 3.01164C0 3.56169 0.444588 4.00759 0.993017 4.00759H4.16922C4.57987 5.17842 5.6922 6.0177 6.99998 6.0177ZM6.99998 4.51327C7.82841 4.51327 8.49998 3.83972 8.49998 3.00885C8.49998 2.17798 7.82841 1.50442 6.99998 1.50442C6.17156 1.50442 5.49999 2.17798 5.49999 3.00885C5.49999 3.83972 6.17156 4.51327 6.99998 4.51327Z" fill="#001F40"/>
<path fill-rule="evenodd" clip-rule="evenodd" d="M1.00498 8.01576C0.449946 8.01576 0 8.46704 0 9.02371C0 9.58039 0.449946 10.0317 1.00498 10.0317H12.1714C12.5839 11.1992 13.6946 12.0354 15 12.0354C16.3054 12.0354 17.416 11.1992 17.8285 10.0317H22.995C23.55 10.0317 24 9.58039 24 9.02371C24 8.46704 23.55 8.01576 22.995 8.01576H17.8265C17.4124 6.85123 16.3033 6.0177 15 6.0177C13.6967 6.0177 12.5875 6.85123 12.1734 8.01576H1.00498ZM16.5 9.02655C16.5 9.85742 15.8284 10.531 15 10.531C14.1715 10.531 13.5 9.85742 13.5 9.02655C13.5 8.19568 14.1715 7.52212 15 7.52212C15.8284 7.52212 16.5 8.19568 16.5 9.02655Z" fill="#001F40"/>
</svg>
