<svg width="24" height="24" viewBox="0 0 24 24" fill="none" xmlns="http://www.w3.org/2000/svg">
<path d="M8.73458 11.5155C8.15642 10.0734 8.09391 8.47593 8.55762 6.99307C9.02133 5.51022 9.98281 4.23294 11.2795 3.37715C12.5763 2.52136 14.1287 2.13954 15.6745 2.29624C17.2202 2.45293 18.6644 3.13853 19.7631 4.23714C20.8617 5.33575 21.5473 6.77999 21.7039 8.32574C21.8606 9.87149 21.4788 11.4239 20.623 12.7207C19.7672 14.0174 18.49 14.9789 17.0071 15.4426C15.5242 15.9063 13.9268 15.8438 12.4847 15.2656L12.4847 15.2655L11.2502 16.4999H9.00024V18.7499H6.75024V20.9999H3.00024V17.2499L8.73474 11.5154L8.73458 11.5155Z" stroke="#001F40" stroke-width="2" stroke-linecap="round" stroke-linejoin="round"/>
<path opacity="0.5" d="M16.875 7.5C17.0821 7.5 17.25 7.33211 17.25 7.125C17.25 6.91789 17.0821 6.75 16.875 6.75C16.6679 6.75 16.5 6.91789 16.5 7.125C16.5 7.33211 16.6679 7.5 16.875 7.5Z" stroke="#001F40" stroke-width="2" stroke-linecap="round" stroke-linejoin="round"/>
<path d="M16.875 8.25C17.4963 8.25 18 7.74632 18 7.125C18 6.50368 17.4963 6 16.875 6C16.2537 6 15.75 6.50368 15.75 7.125C15.75 7.74632 16.2537 8.25 16.875 8.25Z" fill="#001F40"/>
</svg>
