<svg width="16" height="16" viewBox="0 0 16 16" fill="none" xmlns="http://www.w3.org/2000/svg">
<path d="M7.99992 1.33331C6.76224 1.33331 5.57526 1.82498 4.70009 2.70015C3.82492 3.57532 3.33325 4.7623 3.33325 5.99998C3.33325 9.49998 7.99992 14.6666 7.99992 14.6666C7.99992 14.6666 12.6666 9.49998 12.6666 5.99998C12.6666 4.7623 12.1749 3.57532 11.2998 2.70015C10.4246 1.82498 9.2376 1.33331 7.99992 1.33331ZM4.66659 5.99998C4.66659 5.11592 5.01777 4.26808 5.6429 3.64296C6.26802 3.01784 7.11586 2.66665 7.99992 2.66665C8.88397 2.66665 9.73182 3.01784 10.3569 3.64296C10.9821 4.26808 11.3333 5.11592 11.3333 5.99998C11.3333 7.91998 9.41325 10.7933 7.99992 12.5866C6.61325 10.8066 4.66659 7.89998 4.66659 5.99998Z" fill="#001F40"/>
<path d="M7.99992 7.66665C8.92039 7.66665 9.66659 6.92045 9.66659 5.99998C9.66659 5.07951 8.92039 4.33331 7.99992 4.33331C7.07944 4.33331 6.33325 5.07951 6.33325 5.99998C6.33325 6.92045 7.07944 7.66665 7.99992 7.66665Z" fill="#001F40"/>
</svg>
