<svg width="25" height="24" viewBox="0 0 25 24" fill="none" xmlns="http://www.w3.org/2000/svg">
<path fill-rule="evenodd" clip-rule="evenodd" d="M15.75 3.00001C15.75 2.61807 15.5324 2.2695 15.1894 2.10169C14.8463 1.93389 14.4375 1.97617 14.1361 2.21066L7.65689 7.25001H3.5C3.03587 7.25001 2.59075 7.43438 2.26256 7.76257C1.93437 8.09076 1.75 8.53588 1.75 9.00001V15C1.75 15.4641 1.93437 15.9093 2.26256 16.2374C2.59075 16.5656 3.03587 16.75 3.5 16.75H7.65689L14.1361 21.7894C14.4375 22.0238 14.8463 22.0661 15.1894 21.8983C15.5324 21.7305 15.75 21.3819 15.75 21V3.00001ZM9 8.73909L13.75 5.04465V18.9554L9 15.2609V8.73909ZM7 9.25001H3.75V14.75H7V9.25001Z" fill="#001F40"/>
</svg>
