<svg width="24" height="24" viewBox="0 0 24 24" fill="none" xmlns="http://www.w3.org/2000/svg">
<path fill-rule="evenodd" clip-rule="evenodd" d="M14.6894 2.10168C15.0324 2.26949 15.25 2.61807 15.25 3V21C15.25 21.3819 15.0324 21.7305 14.6894 21.8983C14.3463 22.0661 13.9375 22.0238 13.6361 21.7894L7.15689 16.75H3C2.53587 16.75 2.09075 16.5656 1.76256 16.2374C1.43437 15.9092 1.25 15.4641 1.25 15V9C1.25 8.53587 1.43437 8.09075 1.76256 7.76256C2.09075 7.43437 2.53587 7.25 3 7.25H7.15689L13.6361 2.21065C13.9375 1.97616 14.3463 1.93388 14.6894 2.10168ZM8.5 8.73908V15.2609L13.25 18.9554V5.04464L8.5 8.73908ZM6.5 14.75V9.25H3.25V14.75H6.5ZM21.2266 6.51994C20.8361 6.12942 20.2029 6.12942 19.8124 6.51994C19.4219 6.91047 19.4219 7.54363 19.8124 7.93416C20.3464 8.46809 20.7699 9.10197 21.0589 9.79959C21.3478 10.4972 21.4966 11.2449 21.4966 12C21.4966 12.7551 21.3478 13.5028 21.0589 14.2005C20.7699 14.8981 20.3464 15.532 19.8124 16.0659C19.4219 16.4564 19.4219 17.0896 19.8124 17.4801C20.2029 17.8706 20.8361 17.8706 21.2266 17.4801C21.9463 16.7604 22.5172 15.9061 22.9066 14.9658C23.2961 14.0255 23.4966 13.0178 23.4966 12C23.4966 10.9823 23.2961 9.9745 22.9066 9.03423C22.5172 8.09395 21.9463 7.2396 21.2266 6.51994ZM18.5762 9.17155C18.1857 8.78103 17.5526 8.78103 17.162 9.17156C16.7715 9.56208 16.7715 10.1952 17.162 10.5858C17.3478 10.7715 17.4951 10.992 17.5956 11.2346C17.6961 11.4773 17.7478 11.7373 17.7478 12C17.7478 12.2626 17.6961 12.5227 17.5956 12.7653C17.4951 13.008 17.3477 13.2285 17.162 13.4142C16.7715 13.8047 16.7715 14.4379 17.162 14.8284C17.5526 15.2189 18.1857 15.2189 18.5762 14.8284C18.9477 14.457 19.2423 14.016 19.4433 13.5307C19.6444 13.0454 19.7478 12.5253 19.7478 12C19.7478 11.4747 19.6444 10.9545 19.4433 10.4692C19.2423 9.98395 18.9477 9.54299 18.5762 9.17155Z" fill="#001F40"/>
</svg>
