<svg width="20" height="20" viewBox="0 0 20 20" fill="none" xmlns="http://www.w3.org/2000/svg">
<path fill-rule="evenodd" clip-rule="evenodd" d="M8.875 2C5.07804 2 2 5.07804 2 8.875C2 12.672 5.07804 15.75 8.875 15.75C10.7712 15.75 12.488 14.9824 13.7318 13.7409C13.7332 13.7395 13.7346 13.7381 13.736 13.7367C13.7374 13.7352 13.7389 13.7338 13.7403 13.7324C14.9821 12.4886 15.75 10.7714 15.75 8.875C15.75 5.07804 12.672 2 8.875 2ZM15.8177 14.4041C17.0271 12.8875 17.75 10.9657 17.75 8.875C17.75 3.97347 13.7765 0 8.875 0C3.97347 0 0 3.97347 0 8.875C0 13.7765 3.97347 17.75 8.875 17.75C10.9653 17.75 12.8868 17.0274 14.4034 15.8183L18.2923 19.7072C18.6828 20.0977 19.316 20.0977 19.7065 19.7072C20.0971 19.3167 20.0971 18.6835 19.7065 18.293L15.8177 14.4041Z" fill="#001F40"/>
</svg>
