<svg width="24" height="24" viewBox="0 0 24 24" fill="none" xmlns="http://www.w3.org/2000/svg">
<path fill-rule="evenodd" clip-rule="evenodd" d="M5.24927 2.25C4.85144 2.25 4.46991 2.40804 4.18861 2.68934C3.9073 2.97064 3.74927 3.35218 3.74927 3.75V20.25C3.74927 20.6478 3.9073 21.0294 4.18861 21.3107C4.46991 21.592 4.85144 21.75 5.24927 21.75H18.75C18.947 21.75 19.142 21.7112 19.324 21.6358C19.506 21.5604 19.6714 21.45 19.8107 21.3107C19.95 21.1714 20.0604 21.006 20.1358 20.824C20.2112 20.642 20.25 20.447 20.25 20.25V8.25C20.25 8.05109 20.171 7.86032 20.0303 7.71967L14.7803 2.46967C14.6397 2.32902 14.4489 2.25 14.25 2.25H5.24927ZM5.24927 3.75L13.9393 3.75L18.75 8.56066V20.25L5.24927 20.25L5.24927 3.75ZM7.5 10.5C7.08579 10.5 6.75 10.8358 6.75 11.25V18C6.75 18.4142 7.08579 18.75 7.5 18.75H10.5H13.5H16.5C16.9142 18.75 17.25 18.4142 17.25 18V11.25C17.25 10.8358 16.9142 10.5 16.5 10.5H7.5ZM14.25 17.25V14.25C14.25 13.8358 13.9142 13.5 13.5 13.5C13.0858 13.5 12.75 13.8358 12.75 14.25V17.25H11.25V14.25C11.25 13.8358 10.9142 13.5 10.5 13.5C10.0858 13.5 9.75 13.8358 9.75 14.25V17.25H8.25V12H15.75V17.25H14.25Z" fill="#79D277"/>
</svg>
