<svg width="24" height="24" viewBox="0 0 24 24" fill="none" xmlns="http://www.w3.org/2000/svg">
<path d="M12 6.00001C13.8387 5.9939 15.6419 6.5068 17.2021 7.47974C18.7624 8.45268 20.0164 9.84617 20.82 11.5C20.24 12.6948 19.4195 13.757 18.41 14.62L19.82 16.03C21.2241 14.7935 22.3141 13.2408 23 11.5C21.898 8.70019 19.7709 6.42526 17.0514 5.13792C14.3318 3.85058 11.224 3.64751 8.36 4.57001L10.01 6.22001C10.6644 6.081 11.331 6.00731 12 6.00001ZM10.93 7.14001L13 9.21001C13.5716 9.46181 14.0282 9.91843 14.28 10.49L16.35 12.56C16.4378 12.2099 16.4848 11.8509 16.49 11.49C16.4909 10.9001 16.3754 10.3158 16.1501 9.77067C15.9248 9.22551 15.5941 8.73017 15.177 8.31305C14.7598 7.89593 14.2645 7.56523 13.7193 7.33992C13.1742 7.1146 12.5899 6.99909 12 7.00001C11.6388 7.00096 11.2793 7.04801 10.93 7.14001ZM2.01 3.87001L4.69 6.55001C3.04032 7.84117 1.76625 9.5503 1 11.5C1.86874 13.7099 3.38256 15.6071 5.34446 16.9448C7.30636 18.2825 9.62547 18.9986 12 19C13.4788 19.0014 14.9446 18.7232 16.32 18.18L19.74 21.6L21.15 20.19L3.42 2.45001L2.01 3.87001ZM9.51 11.37L12.12 13.98C12.081 13.9915 12.0407 13.9983 12 14C11.337 14 10.7011 13.7366 10.2322 13.2678C9.76339 12.7989 9.5 12.1631 9.5 11.5C9.5 11.45 9.51 11.42 9.51 11.37ZM6.11 7.97001L7.86 9.72001C7.62291 10.2835 7.50052 10.8887 7.5 11.5C7.5008 12.2442 7.68596 12.9766 8.03892 13.6318C8.39189 14.287 8.90166 14.8445 9.5227 15.2546C10.1437 15.6646 10.8567 15.9145 11.5979 15.9817C12.339 16.049 13.0853 15.9316 13.77 15.64L14.75 16.62C13.8544 16.8686 12.9295 16.9964 12 17C10.1613 17.0061 8.35813 16.4932 6.79788 15.5203C5.23763 14.5473 3.98362 13.1539 3.18 11.5C3.86681 10.1102 4.87042 8.90104 6.11 7.97001Z" fill="#001F40" fill-opacity="0.3"/>
</svg>
