<svg width="24" height="24" viewBox="0 0 24 24" fill="none" xmlns="http://www.w3.org/2000/svg">
<path d="M8.71121 15.5683C9.59687 14.7223 10.7745 14.2503 11.9993 14.2503C13.224 14.2503 14.4017 14.7223 15.2873 15.5683" stroke="#79D277" stroke-width="2" stroke-linecap="round" stroke-linejoin="round"/>
<path d="M5.52924 12.3863C7.2589 10.6964 9.5811 9.75027 11.9993 9.75027C14.4174 9.75027 16.7396 10.6964 18.4693 12.3863" stroke="#79D277" stroke-width="2" stroke-linecap="round" stroke-linejoin="round"/>
<path d="M2.34971 9.20433C4.92234 6.67053 8.38835 5.25027 11.9992 5.25027C15.6101 5.25027 19.0762 6.67053 21.6488 9.20433" stroke="#79D277" stroke-width="2" stroke-linecap="round" stroke-linejoin="round"/>
<path d="M12 19.875C12.6213 19.875 13.125 19.3713 13.125 18.75C13.125 18.1287 12.6213 17.625 12 17.625C11.3787 17.625 10.875 18.1287 10.875 18.75C10.875 19.3713 11.3787 19.875 12 19.875Z" fill="#79D277"/>
</svg>
