<svg width="28" height="28" viewBox="0 0 28 28" fill="none" xmlns="http://www.w3.org/2000/svg">
<path d="M17.392 10.608C16.456 9.672 15.232 9.2 14 9.2V14L10.608 17.392C12.48 19.264 15.52 19.264 17.4 17.392C19.272 15.52 19.272 12.48 17.392 10.608ZM14 6C9.584 6 6 9.584 6 14C6 18.416 9.584 22 14 22C18.416 22 22 18.416 22 14C22 9.584 18.416 6 14 6ZM14 20.4C10.464 20.4 7.6 17.536 7.6 14C7.6 10.464 10.464 7.6 14 7.6C17.536 7.6 20.4 10.464 20.4 14C20.4 17.536 17.536 20.4 14 20.4Z" fill="#001F40" fill-opacity="0.5"/>
</svg>
