<svg width="24" height="24" viewBox="0 0 24 24" fill="none" xmlns="http://www.w3.org/2000/svg">
<path d="M17.3032 5.63607L11.9999 10.9394L6.69659 5.63607C6.55594 5.49542 6.36518 5.4164 6.16626 5.4164C5.96735 5.4164 5.77659 5.49542 5.63593 5.63607C5.49528 5.77672 5.41626 5.96749 5.41626 6.1664C5.41626 6.36531 5.49528 6.55608 5.63593 6.69673L10.9392 12L5.63593 17.3033C5.49528 17.444 5.41626 17.6347 5.41626 17.8337C5.41626 18.0326 5.49528 18.2233 5.63593 18.364C5.77659 18.5046 5.96735 18.5837 6.16626 18.5837C6.36518 18.5837 6.55594 18.5046 6.69659 18.364L11.9999 13.0607L17.3032 18.364C17.4438 18.5046 17.6346 18.5837 17.8335 18.5837C18.0324 18.5837 18.2232 18.5046 18.3639 18.364C18.5045 18.2233 18.5835 18.0326 18.5835 17.8337C18.5835 17.6347 18.5045 17.444 18.3639 17.3033L13.0606 12L18.3639 6.69673C18.5045 6.55608 18.5835 6.36531 18.5835 6.1664C18.5835 5.96749 18.5045 5.77672 18.3639 5.63607C18.2232 5.49542 18.0324 5.4164 17.8335 5.4164C17.6346 5.4164 17.4438 5.49542 17.3032 5.63607Z" fill="#001F40"/>
</svg>
