<svg width="28" height="28" viewBox="0 0 28 28" fill="none" xmlns="http://www.w3.org/2000/svg">
<path d="M20.1201 15.3287C20.151 15.0631 20.1716 14.7869 20.1716 14.5C20.1716 14.2131 20.151 13.9369 20.1099 13.6713L21.8482 12.2688C22.0025 12.1413 22.0436 11.9075 21.951 11.7269L20.3053 8.78375C20.2024 8.5925 19.9864 8.52875 19.8013 8.5925L17.7544 9.4425C17.3224 9.1025 16.8698 8.82625 16.3658 8.61375L16.0572 6.36125C16.0263 6.14875 15.8515 6 15.6458 6H12.3542C12.1485 6 11.984 6.14875 11.9531 6.36125L11.6445 8.61375C11.1405 8.82625 10.6776 9.11312 10.2559 9.4425L8.20901 8.5925C8.02386 8.51813 7.80785 8.5925 7.705 8.78375L6.05924 11.7269C5.95638 11.9181 5.99753 12.1413 6.1621 12.2688L7.90043 13.6713C7.85928 13.9369 7.82843 14.2238 7.82843 14.5C7.82843 14.7762 7.849 15.0631 7.89014 15.3287L6.15182 16.7313C5.99753 16.8588 5.95638 17.0925 6.04896 17.2731L7.69471 20.2163C7.79757 20.4075 8.01357 20.4713 8.19872 20.4075L10.2456 19.5575C10.6776 19.8975 11.1302 20.1737 11.6342 20.3862L11.9428 22.6388C11.984 22.8512 12.1485 23 12.3542 23H15.6458C15.8515 23 16.0263 22.8512 16.0469 22.6388L16.3555 20.3862C16.8595 20.1737 17.3224 19.8869 17.7441 19.5575L19.791 20.4075C19.9761 20.4819 20.1921 20.4075 20.295 20.2163L21.9408 17.2731C22.0436 17.0819 22.0025 16.8588 21.8379 16.7313L20.1201 15.3287ZM14 17.6875C12.3028 17.6875 10.9142 16.2531 10.9142 14.5C10.9142 12.7469 12.3028 11.3125 14 11.3125C15.6972 11.3125 17.0858 12.7469 17.0858 14.5C17.0858 16.2531 15.6972 17.6875 14 17.6875Z" fill="#001F40" fill-opacity="0.5"/>
</svg>
