<svg width="14" height="14" viewBox="0 0 14 14" fill="none" xmlns="http://www.w3.org/2000/svg">
<path d="M13.3639 12.3032L8.0606 6.99989L13.3639 1.69659C13.5046 1.55594 13.5836 1.36518 13.5836 1.16626C13.5836 0.967352 13.5046 0.776586 13.3639 0.635934C13.2232 0.495281 13.0325 0.416264 12.8336 0.416264C12.6347 0.416264 12.4439 0.495281 12.3032 0.635934L6.99994 5.93923L1.69664 0.635934C1.55599 0.495281 1.36522 0.416264 1.16631 0.416264C0.967395 0.416264 0.776631 0.495281 0.635978 0.635934C0.495326 0.776586 0.416308 0.967352 0.416308 1.16626C0.416308 1.36518 0.495326 1.55594 0.635978 1.69659L5.93928 6.99989L0.635978 12.3032C0.495326 12.4438 0.416307 12.6346 0.416308 12.8335C0.416309 13.0324 0.495326 13.2232 0.635978 13.3639C0.776631 13.5045 0.967396 13.5835 1.16631 13.5835C1.36522 13.5835 1.55599 13.5045 1.69664 13.3639L6.99994 8.06055L12.3032 13.3639C12.4439 13.5045 12.6347 13.5835 12.8336 13.5835C13.0325 13.5835 13.2232 13.5045 13.3639 13.3639C13.5046 13.2232 13.5836 13.0324 13.5836 12.8335C13.5836 12.6346 13.5046 12.4438 13.3639 12.3032Z" fill="#0B5301"/>
</svg>
