<svg width="24" height="24" viewBox="0 0 24 24" fill="none" xmlns="http://www.w3.org/2000/svg">
<path d="M11.8892 16.5308C12.0318 16.9164 12.2773 17.2556 12.5991 17.5115C12.921 17.7674 13.3067 17.9303 13.7146 17.9824C14.1224 18.0345 14.5368 17.9739 14.9126 17.8071C15.2884 17.6403 15.6113 17.3737 15.8463 17.0363C16.0813 16.6989 16.2193 16.3036 16.2455 15.8933C16.2716 15.4829 16.1848 15.0733 15.9945 14.7088C15.8042 14.3443 15.5177 14.039 15.1661 13.8259C14.8144 13.6127 14.4112 13.5 14 13.5H3.5" stroke="#001F40" stroke-width="1.5" stroke-linecap="round" stroke-linejoin="round"/>
<path d="M8.88917 7.46973C9.03179 7.0841 9.27733 6.74491 9.59915 6.489C9.92096 6.23309 10.3067 6.07024 10.7146 6.01814C11.1224 5.96604 11.5368 6.02668 11.9126 6.19346C12.2884 6.36025 12.6113 6.62682 12.8463 6.96422C13.0813 7.30161 13.2193 7.69694 13.2455 8.10727C13.2716 8.5176 13.1848 8.92725 12.9945 9.29172C12.8042 9.6562 12.5177 9.96157 12.1661 10.1747C11.8144 10.3878 11.4112 10.5005 11 10.5005H2" stroke="#001F40" stroke-width="1.5" stroke-linecap="round" stroke-linejoin="round"/>
<path d="M20.0899 8.42321C18.9143 9.28828 17.8632 10.1065 17.5692 11.5C18.7121 10.8021 20.224 10.6367 21.0251 9.79305C21.8518 8.92219 21.7051 7.71867 21.75 6.5C20.8237 6.86575 19.8546 7.13987 18.8603 7.31735C16.995 7.69237 16.2051 9.46888 17.1513 11.1201C18.1999 9.46129 18.9606 8.73936 20.0899 8.42321Z" fill="#001F40"/>
</svg>
