<svg width="24" height="24" viewBox="0 0 24 24" fill="none" xmlns="http://www.w3.org/2000/svg">
<path opacity="0.2" d="M3.94531 5H20.0545C20.1029 5 20.1503 5.01407 20.1909 5.0405C20.2315 5.06692 20.2635 5.10457 20.2831 5.14886C20.3027 5.19315 20.309 5.24218 20.3013 5.28999C20.2935 5.3378 20.2721 5.38233 20.2395 5.41817L14.075 12.1991C13.8658 12.4292 13.7499 12.729 13.7499 13.04V18.3486C13.7499 18.3898 13.7397 18.4303 13.7203 18.4666C13.7009 18.5029 13.6728 18.5338 13.6386 18.5566L10.6386 20.5566C10.6009 20.5817 10.5572 20.5961 10.512 20.5983C10.4668 20.6005 10.4218 20.5904 10.3819 20.569C10.342 20.5477 10.3087 20.5159 10.2854 20.4771C10.2622 20.4383 10.2499 20.3939 10.2499 20.3486V13.04C10.2499 12.729 10.134 12.4292 9.92482 12.1991L3.76033 5.41817C3.72775 5.38233 3.70628 5.3378 3.69853 5.28999C3.69078 5.24218 3.69709 5.19315 3.71668 5.14886C3.73628 5.10457 3.76832 5.06692 3.8089 5.0405C3.84949 5.01407 3.89688 5 3.94531 5Z" stroke="#001F40" stroke-linecap="round" stroke-linejoin="round"/>
</svg>
