<svg width="100" height="100" viewBox="0 0 100 100" fill="none" xmlns="http://www.w3.org/2000/svg">
<path d="M50 87.5C70.7107 87.5 87.5 70.7107 87.5 50C87.5 29.2893 70.7107 12.5 50 12.5C29.2893 12.5 12.5 29.2893 12.5 50C12.5 70.7107 29.2893 87.5 50 87.5Z" stroke="#001F40" stroke-width="2" stroke-linecap="round" stroke-linejoin="round"/>
<path d="M49.6875 69C50.6195 69 51.375 68.2445 51.375 67.3125C51.375 66.3805 50.6195 65.625 49.6875 65.625C48.7555 65.625 48 66.3805 48 67.3125C48 68.2445 48.7555 69 49.6875 69Z" fill="#001F40"/>
<path d="M49.9998 56.2518V53.1268C52.163 53.1268 54.2776 52.4854 56.0763 51.2835C57.875 50.0817 59.2769 48.3735 60.1047 46.3749C60.9325 44.3764 61.1491 42.1772 60.7271 40.0555C60.3051 37.9339 59.2634 35.985 57.7337 34.4554C56.2041 32.9257 54.2552 31.884 52.1336 31.462C50.0119 31.04 47.8127 31.2566 45.8142 32.0844C43.8156 32.9122 42.1074 34.3141 40.9056 36.1128C39.7037 37.9114 39.0623 40.0261 39.0623 42.1893" stroke="#001F40" stroke-width="2" stroke-linecap="round" stroke-linejoin="round"/>
</svg>
