<svg width="32" height="32" viewBox="0 0 32 32" fill="none" xmlns="http://www.w3.org/2000/svg">
<path d="M19.293 5H18.3073V7.91726H19.293V5Z" fill="#001F40"/>
<path d="M22.2501 8.88968V7.91727L19.293 7.91726L19.2929 8.88968H22.2501Z" fill="#001F40"/>
<path d="M18.3073 8.88974L19.2929 8.88968L19.293 11.807H18.3073V8.88974Z" fill="#001F40"/>
<path d="M18.3073 8.88974V7.91726L15.3501 7.91727V8.88968L18.3073 8.88974Z" fill="#001F40"/>
<path d="M23.4006 11.807H22.2506V15.2104H18.8005V16.3449H22.2506V15.2104L23.4 15.2105V16.3449H26.8501V15.2104L23.4 15.2105L23.4006 11.807Z" fill="#001F40"/>
<path d="M22.2506 16.3449H23.4L23.4006 19.7485H22.2506V16.3449Z" fill="#001F40"/>
<path d="M26.0286 6.13443H25.3715V8.07922H23.4V8.7275L25.3715 8.7275V8.07922L26.0286 8.07927V8.7275L28 8.7275V8.07922L26.0286 8.07927L26.0286 6.13443Z" fill="#001F40"/>
<path d="M25.3715 8.7275L26.0286 8.7275L26.0286 10.6725H25.3715V8.7275Z" fill="#001F40"/>
<path d="M24.1293 20.6913C23.9914 20.627 23.8413 20.592 23.6888 20.5885C23.5363 20.5849 23.3847 20.613 23.2438 20.6709L23.2059 20.6879C21.6944 21.2957 20.0324 21.4402 18.4365 21.1026C16.8406 20.765 15.3848 19.9608 14.2589 18.795C13.133 17.6292 12.3893 16.1559 12.1246 14.567C11.86 12.9781 12.0867 11.3474 12.7753 9.88753C12.869 9.69163 12.9005 9.47233 12.8655 9.25847C12.8305 9.04461 12.7308 8.8462 12.5793 8.68932C12.4279 8.53244 12.2319 8.42444 12.0171 8.37952C11.8022 8.3346 11.5787 8.35487 11.3757 8.43765C9.82557 9.0683 8.45482 10.0626 7.38247 11.3344C6.31013 12.6061 5.5686 14.1167 5.22223 15.7353C4.87586 17.3538 4.93512 19.0312 5.39487 20.622C5.85463 22.2128 6.70098 23.6689 7.86047 24.8639C9.01996 26.0589 10.4576 26.9566 12.0485 27.4793C13.6394 28.0019 15.3356 28.1337 16.9898 27.863C18.6441 27.5924 20.2063 26.9276 21.5411 25.9263C22.8758 24.9251 23.9427 23.6176 24.6491 22.1173C24.7715 21.8602 24.7854 21.5656 24.688 21.2983C24.5905 21.031 24.3897 20.8127 24.1293 20.6913Z" fill="#001F40"/>
</svg>
