<svg width="24" height="24" viewBox="0 0 24 24" fill="none" xmlns="http://www.w3.org/2000/svg">
<path d="M14.1858 3H13.4144V5.28307H14.1858V3Z" fill="#001F40"/>
<path d="M16.5001 6.0441V5.28308L14.1858 5.28307L14.1858 6.0441H16.5001Z" fill="#001F40"/>
<path d="M13.4144 6.04414L14.1858 6.0441L14.1858 8.32721H13.4144V6.04414Z" fill="#001F40"/>
<path d="M13.4144 6.04414V5.28307L11.1001 5.28308V6.0441L13.4144 6.04414Z" fill="#001F40"/>
<path d="M17.4004 8.32722H16.5004V10.9908H13.8004V11.8786H16.5004V10.9908L17.4 10.9908V11.8786H20.1V10.9908L17.4 10.9908L17.4004 8.32722Z" fill="#001F40"/>
<path d="M16.5004 11.8786H17.4L17.4004 14.5423H16.5004V11.8786Z" fill="#001F40"/>
<path d="M19.4572 3.88781H18.9429V5.40983H17.4V5.91718L18.9429 5.91718V5.40983L19.4571 5.40986V5.91718L21 5.91718V5.40983L19.4571 5.40986L19.4572 3.88781Z" fill="#001F40"/>
<path d="M18.9429 5.91718L19.4571 5.91718L19.4572 7.43933H18.9429V5.91718Z" fill="#001F40"/>
<path d="M17.9708 15.2801C17.8628 15.2298 17.7454 15.2024 17.626 15.1997C17.5066 15.1969 17.388 15.2189 17.2778 15.2641L17.2481 15.2775C16.0652 15.7532 14.7645 15.8663 13.5155 15.602C12.2665 15.3378 11.1272 14.7085 10.2461 13.7961C9.36497 12.8838 8.78291 11.7307 8.57581 10.4872C8.3687 9.24373 8.54615 7.96755 9.08502 6.82502C9.15838 6.67171 9.18299 6.50008 9.15561 6.33271C9.12824 6.16534 9.05016 6.01007 8.93165 5.88729C8.81314 5.76452 8.65974 5.68 8.49162 5.64484C8.3235 5.60969 8.14853 5.62555 7.98972 5.69034C6.77653 6.18388 5.70377 6.96206 4.86455 7.95732C4.02532 8.95257 3.44499 10.1348 3.17392 11.4015C2.90284 12.6682 2.94922 13.981 3.30903 15.2259C3.66884 16.4709 4.3312 17.6105 5.23863 18.5457C6.14606 19.4809 7.27113 20.1835 8.5162 20.5925C9.76128 21.0015 11.0887 21.1046 12.3833 20.8928C13.678 20.681 14.9006 20.1607 15.9452 19.3771C16.9898 18.5935 17.8247 17.5703 18.3776 16.3962C18.4733 16.1949 18.4842 15.9644 18.408 15.7552C18.3317 15.546 18.1745 15.3752 17.9708 15.2801Z" fill="#001F40"/>
</svg>
