<svg width="32" height="32" viewBox="0 0 32 32" fill="none" xmlns="http://www.w3.org/2000/svg">
<path d="M11.204 4.75044C9.49859 5.079 7.92277 5.88842 6.66239 7.08321C5.40201 8.278 4.50965 9.80832 4.09058 11.4936L7.1554 12.3142C7.17957 12.2465 8.37359 7.316 11.2052 4.74923L11.204 4.75044Z" fill="#001F40"/>
<path d="M20.2824 15.832C20.7623 14.1628 20.7547 12.3912 20.2605 10.7262C19.7662 9.06115 18.806 7.57222 17.4932 6.43506C18.6642 10.0798 17.2189 15.0067 17.2176 15.0151L20.2824 15.832Z" fill="#001F40"/>
<path d="M25.0971 9.80544C26.7003 9.80544 28 8.50585 28 6.90272C28 5.29959 26.7003 4 25.0971 4C23.4939 4 22.1943 5.29959 22.1943 6.90272C22.1943 8.50585 23.4939 9.80544 25.0971 9.80544Z" fill="#001F40"/>
<path d="M23.7944 23.0103L22.8276 21.6097H25.0839V20.2103H16.9868L15.0942 17.0526L13.8942 17.7776L16.1964 21.6157H17.4509L16.4841 23.0151H10.2493L12.7545 13.8163L15.8665 14.6501C17.162 9.81631 16.565 5.45377 14.5371 4.90875C12.5092 4.36374 9.80091 7.84048 8.50659 12.6767L11.407 13.4526L8.79905 23.0091H8.19479C7.08222 23.011 6.01583 23.454 5.22946 24.241C4.4431 25.028 4.00096 26.0947 4 27.2072V28H27.8816V27.2072C27.8802 26.1136 27.4524 25.0636 26.6893 24.2802C25.9262 23.4968 24.8877 23.0417 23.7944 23.0115V23.0103ZM18.1844 23.0103L19.1513 21.6109H21.1248L22.0916 23.0103H18.1844Z" fill="#001F40"/>
</svg>
