<svg width="24" height="24" viewBox="0 0 24 24" fill="none" xmlns="http://www.w3.org/2000/svg">
<path d="M8.40297 3.56283C7.12394 3.80925 5.94208 4.41632 4.99679 5.31241C4.05151 6.2085 3.38224 7.35624 3.06794 8.62023L5.36655 9.23564C5.38468 9.18489 6.28019 5.487 8.40387 3.56193L8.40297 3.56283Z" fill="#001F40"/>
<path d="M15.2118 11.874C15.5717 10.6221 15.566 9.29339 15.1953 8.04463C14.8247 6.79586 14.1045 5.67917 13.1199 4.8263C13.9982 7.55983 12.9141 11.255 12.9132 11.2613L15.2118 11.874Z" fill="#001F40"/>
<path d="M18.8228 7.35408C20.0253 7.35408 21 6.37938 21 5.17704C21 3.97469 20.0253 3 18.8228 3C17.6204 3 16.6457 3.97469 16.6457 5.17704C16.6457 6.37938 17.6204 7.35408 18.8228 7.35408Z" fill="#001F40"/>
<path d="M17.8458 17.2577L17.1207 16.2072H18.8129V15.1577H12.7401L11.3207 12.7894L10.4206 13.3332L12.1473 16.2118H13.0882L12.363 17.2613H7.68696L9.56591 10.3622L11.8999 10.9876C12.8715 7.36223 12.4238 4.09033 10.9028 3.68156C9.38191 3.2728 7.35069 5.88036 6.37994 9.50755L8.55528 10.0894L6.59929 17.2568H6.14609C5.31167 17.2582 4.51187 17.5905 3.9221 18.1808C3.33233 18.771 3.00072 19.5711 3 20.4054V21H20.9112V20.4054C20.9101 19.5852 20.5893 18.7977 20.017 18.2101C19.4446 17.6226 18.6658 17.2812 17.8458 17.2586V17.2577ZM13.6383 17.2577L14.3634 16.2082H15.8436L16.5687 17.2577H13.6383Z" fill="#001F40"/>
</svg>
